<?xml version="1.0" encoding="iso-8859-1"?>
<!DOCTYPE svg PUBLIC "-//W3C//DTD SVG 1.1//EN" "http://www.w3.org/Graphics/SVG/1.1/DTD/svg11.dtd">
<svg 
 version="1.1" xmlns="http://www.w3.org/2000/svg" xmlns:xlink="http://www.w3.org/1999/xlink" x="0px" y="0px" width="512px"
	 height="512px" viewBox="0 0 512 512" style="enable-background:new 0 0 512 512;" xml:space="preserve"
><g id="afcae5a789ccd549f9c6e2a2f8074720"><g></g><path style="display: inline; fill: #010101;" d="M5.019,506.975c-3.159-3.16-4.792-7.537-4.479-11.99l18.754-266.519
		c0.422-6.028,4.328-11.261,9.995-13.371c5.667-2.122,12.038-0.735,16.313,3.539l69.191,69.185L287.82,114.792l-69.187-69.186
		c-4.28-4.28-5.66-10.651-3.544-16.318c2.11-5.661,7.342-9.567,13.371-9.995l266.531-18.76c8.903-0.621,17.09,7.565,16.475,16.475
		l-18.651,264.916c0.163,4.146-1.332,8.355-4.503,11.525c-6.028,6.027-15.8,6.027-21.828,0c-0.03-0.037-0.054-0.061-0.09-0.084
		l-69.192-69.192L224.168,397.201l69.198,69.197c4.273,4.268,5.66,10.645,3.538,16.313c-2.109,5.654-7.336,9.572-13.37,9.994
		l-266.519,18.76C12.561,511.766,8.178,510.139,5.019,506.975z M47.705,264.387L32.568,479.418l215.043-15.131l-56.176-56.176
		c-6.028-6.021-6.028-15.801,0-21.822L386.29,191.434c6.022-6.028,15.794-6.028,21.822,0l56.177,56.177l15.137-215.043
		L264.389,47.704l56.171,56.177c6.027,6.022,6.027,15.8,0,21.822L125.704,320.559c-6.028,6.027-15.794,6.027-21.822,0
		L47.705,264.387z"></path></g></svg>